<svg id="Layer_1" data-name="Layer 1" xmlns="http://www.w3.org/2000/svg" viewBox="0 0 1667.3 273.42"><defs><style>.cls-1{fill:none;stroke:#f0f0c9;stroke-miterlimit:10;stroke-width:7px;}</style></defs><title>portfolio</title><path class="cls-1" d="M536.1,1086.25q17.85,8.2,27.36,23.55t9.51,36.41q0,20.82-9.51,36.28t-27.36,23.69q-17.83,8.21-41.89,8.21H452.45v55.31H418.09V1078h76.12Q518.26,1078,536.1,1086.25Zm-9.38,88.17q11.63-9.87,11.63-28.21T526.72,1118q-11.64-9.85-34.09-9.86H452.45v76.12h40.18Q515.09,1184.27,526.72,1174.42Z" transform="translate(-414.59 -1054.82)"/><path class="cls-1" d="M663.36,1121.84v32.59a40.3,40.3,0,0,0-7.66-.82q-19.31,0-30.13,11.63t-10.84,33.55v70.91h-33V1123.49h31.46v21.35Q627.42,1121.85,663.36,1121.84Z" transform="translate(-414.59 -1054.82)"/><path class="cls-1" d="M693.76,1262a68.54,68.54,0,0,1-26.83-26.7q-9.64-17.11-9.65-38.75t9.65-38.6a68.78,68.78,0,0,1,26.83-26.56q17.18-9.59,38.58-9.59,21.67,0,38.86,9.59A68.82,68.82,0,0,1,798,1158q9.65,17,9.65,38.6T798,1235.34A68.58,68.58,0,0,1,771.2,1262q-17.19,9.59-38.86,9.58Q710.94,1271.62,693.76,1262Zm68.71-32.31q11.89-12.6,11.9-33.14t-11.9-33.13q-11.88-12.59-30.13-12.59t-30,12.59q-11.77,12.6-11.76,33.13t11.76,33.14q11.76,12.58,30,12.59T762.47,1229.73Z" transform="translate(-414.59 -1054.82)"/><path class="cls-1" d="M958.32,1123.49v124q0,77.22-76.12,77.22a136.66,136.66,0,0,1-38.59-5.34q-18.24-5.34-30.13-15.47l14.8-25.74q9.26,7.93,23.39,12.73a89,89,0,0,0,28.68,4.79q23.25,0,34.09-11t10.84-33.4v-7.67a54.19,54.19,0,0,1-20.62,14.51,70.29,70.29,0,0,1-26.69,4.93,74.34,74.34,0,0,1-36.34-8.9,65.47,65.47,0,0,1-25.64-25q-9.37-16.15-9.38-37t9.38-36.82a64.79,64.79,0,0,1,25.64-24.78,75.37,75.37,0,0,1,36.34-8.77,72.13,72.13,0,0,1,27.88,5.21,51.68,51.68,0,0,1,21,15.88v-19.44Zm-44.54,99q12-11.64,12-30.26,0-18.33-12-29.84T883,1150.87q-19,0-31,11.5t-12,29.84q0,18.63,12,30.26t31,11.64Q901.76,1234.11,913.78,1222.47Z" transform="translate(-414.59 -1054.82)"/><path class="cls-1" d="M1062.18,1121.84v32.59a40.3,40.3,0,0,0-7.66-.82q-19.3,0-30.13,11.63t-10.84,33.55v70.91h-33V1123.49H1012v21.35Q1026.24,1121.85,1062.18,1121.84Z" transform="translate(-414.59 -1054.82)"/><path class="cls-1" d="M1169.88,1137.31q16.51,15.48,16.52,46.69v85.7h-31.18v-17.8a38.71,38.71,0,0,1-17.32,14.65q-11.24,5.07-27.09,5.07t-27.75-5.61a43.28,43.28,0,0,1-18.37-15.61,40.59,40.59,0,0,1-6.47-22.59q0-19.71,14.14-31.63t44.53-11.91h36.48v-2.19q0-15.33-8.86-23.54t-26.3-8.22a73.67,73.67,0,0,0-23.39,3.83,56.94,56.94,0,0,0-19.42,10.68l-13-24.91a79.17,79.17,0,0,1,26.69-13.42,115.07,115.07,0,0,1,33-4.66Q1153.37,1121.84,1169.88,1137.31Zm-30.13,103.51a31.86,31.86,0,0,0,13.62-16.84v-17h-34.1q-28.55,0-28.54,19.44a17.68,17.68,0,0,0,7.13,14.79q7.14,5.48,19.83,5.47A41.54,41.54,0,0,0,1139.75,1240.82Z" transform="translate(-414.59 -1054.82)"/><path class="cls-1" d="M1428,1137.86q15.58,16,15.59,48.06v83.78h-33v-79.4q0-19.17-8.2-28.89t-23.52-9.72q-16.65,0-26.69,11.36t-10,32.45v74.2h-33v-79.4q0-19.17-8.19-28.89t-23.52-9.72q-16.92,0-26.83,11.23t-9.91,32.58v74.2h-33V1123.49H1239v18.62a51.49,51.49,0,0,1,19.82-15.06,65.24,65.24,0,0,1,26.43-5.21q15.86,0,28.15,6.16a46.36,46.36,0,0,1,19.42,18.21,59.19,59.19,0,0,1,22.47-17.93,70.77,70.77,0,0,1,30.39-6.44Q1412.38,1121.84,1428,1137.86Z" transform="translate(-414.59 -1054.82)"/><path class="cls-1" d="M1685.13,1137.86q15.58,16,15.59,48.06v83.78h-33v-79.4q0-19.17-8.2-28.89t-23.52-9.72q-16.65,0-26.69,11.36t-10,32.45v74.2h-33v-79.4q0-19.17-8.2-28.89t-23.52-9.72q-16.92,0-26.83,11.23t-9.91,32.58v74.2h-33V1123.49h31.45v18.62a51.49,51.49,0,0,1,19.82-15.06,65.24,65.24,0,0,1,26.43-5.21q15.85,0,28.15,6.16a46.36,46.36,0,0,1,19.42,18.21,59.19,59.19,0,0,1,22.47-17.93,70.77,70.77,0,0,1,30.39-6.44Q1669.54,1121.84,1685.13,1137.86Z" transform="translate(-414.59 -1054.82)"/><path class="cls-1" d="M1723.45,1093.5a20.68,20.68,0,0,1,0-29.29,20.78,20.78,0,0,1,15.07-5.89,21.38,21.38,0,0,1,15.06,5.61,18.41,18.41,0,0,1,6.08,14.1,21,21,0,0,1-6,15.2,20.18,20.18,0,0,1-15.19,6.16A20.78,20.78,0,0,1,1723.45,1093.5Zm-1.58,30h33V1269.7h-33Z" transform="translate(-414.59 -1054.82)"/><path class="cls-1" d="M1900,1138q16.11,16.15,16.12,47.92v83.78h-33v-79.4q0-19.17-8.72-28.89t-24.84-9.72q-18.24,0-28.81,11.36t-10.57,32.72v73.93h-33V1123.49h31.45v18.89a51.74,51.74,0,0,1,20.62-15.33,71.83,71.83,0,0,1,28-5.21Q1883.88,1121.84,1900,1138Z" transform="translate(-414.59 -1054.82)"/><path class="cls-1" d="M2078.4,1123.49v124q0,77.22-76.12,77.22a136.66,136.66,0,0,1-38.59-5.34q-18.24-5.34-30.13-15.47l14.8-25.74q9.26,7.93,23.39,12.73a89,89,0,0,0,28.68,4.79q23.25,0,34.09-11t10.84-33.4v-7.67a54.19,54.19,0,0,1-20.62,14.51,70.29,70.29,0,0,1-26.69,4.93,74.32,74.32,0,0,1-36.34-8.9,65.47,65.47,0,0,1-25.64-25q-9.37-16.15-9.38-37t9.38-36.82a64.79,64.79,0,0,1,25.64-24.78,75.35,75.35,0,0,1,36.34-8.77,72.13,72.13,0,0,1,27.88,5.21,51.58,51.58,0,0,1,21,15.88v-19.44Zm-44.54,99q12-11.64,12-30.26,0-18.33-12-29.84t-30.79-11.5q-19,0-31,11.5t-12,29.84q0,18.63,12,30.26t31,11.64Q2021.84,1234.11,2033.86,1222.47Z" transform="translate(-414.59 -1054.82)"/></svg>