<?xml version="1.0" encoding="utf-8"?>
<!-- Generator: Adobe Illustrator 21.1.0, SVG Export Plug-In . SVG Version: 6.00 Build 0)  -->
<svg version="1.1" xmlns="http://www.w3.org/2000/svg" xmlns:xlink="http://www.w3.org/1999/xlink" x="0px" y="0px"
	 viewBox="0 0 1280 1024" style="enable-background:new 0 0 1280 1024;" xml:space="preserve">
<style type="text/css">
	.st0{fill:#30302C;}
</style>
<g id="Layer_1">
</g>
<g id="Layer_2">
</g>
<g id="Layer_3">
</g>
<g id="Layer_4">
	<polygon class="st0" points="620.7,469.8 612.6,497.2 601,483.5 577.4,566.3 526.1,566.3 554.8,469.8 	"/>
	<path class="st0" d="M568.8,422.9"/>
	<polygon class="st0" points="703.8,566.3 668.1,566.3 656.6,552 681,469.8 732.5,469.8 	"/>
	<polyline class="st0" points="702.3,398 753.9,398 748.7,415.3 697.2,415.3 702.3,398 	"/>
	<polyline class="st0" points="576.2,398 571,415.3 622.8,415.3 609.7,398 576.2,398 	"/>
	<polygon class="st0" points="568.8,422.9 746.5,422.9 734.6,463 675.2,463 650.9,544.9 618.3,504.3 630.6,462.5 556.9,463 	"/>
</g>
</svg>
